<svg id="Capa_1" enable-background="new 0 0 512.004 512.004" height="512" viewBox="0 0 512.004 512.004" width="512" xmlns="http://www.w3.org/2000/svg"><g><path d="m509.405 154.71c-.98-1.441-24.459-35.65-63.196-66.981-52.579-42.523-108.147-59.06-160.721-47.837l-234.504 42.262c-15.911 2.867-29.872 11.622-39.309 24.652-9.469 13.073-13.373 29.043-10.995 44.968 2.641 17.681 12.87 33.325 28.065 42.922 10.08 6.366 21.638 9.641 33.311 9.641 6.058 0 12.146-.882 18.075-2.671l153.445-43.073c39.832-11.18 80.934-15.843 122.161-13.867 41.348 1.985 81.755 10.604 120.098 25.619 6.162 2.413 11.52 4.714 14.331 6.154 6.102 3.126 13.546 1.717 18.082-3.422 4.537-5.139 5.014-12.7 1.157-18.367zm-152.23-39.95c-44.45-2.132-88.766 2.896-131.706 14.949l-153.592 43.115c-.107.029-.214.061-.32.093-9.05 2.761-18.815 1.452-26.792-3.586-7.81-4.933-13.063-12.947-14.414-21.988-2.527-16.92 8.873-32.586 25.954-35.664 0 0 235.078-42.368 235.243-42.403 8.898-1.915 17.859-2.871 26.878-2.871 35.476 0 71.805 14.795 108.342 44.187 7.743 6.229 14.854 12.632 21.237 18.836-29.526-8.267-59.937-13.185-90.83-14.668z"/><path d="m384.998 356.694c6.455-7.748 11.464-16.13 14.769-25.022 2.886-7.765-1.069-16.399-8.834-19.286-7.767-2.884-16.4 1.069-19.286 8.835-5.922 15.933-21.403 30.745-43.59 41.709-23.983 11.851-54.399 18.377-85.646 18.377-31.246 0-61.662-6.526-85.645-18.377-22.187-10.963-37.668-25.775-43.59-41.708-2.887-7.766-11.521-11.716-19.287-8.834-7.765 2.887-11.72 11.522-8.833 19.287 3.305 8.891 8.314 17.272 14.768 25.02l-35.134 35.135c-5.858 5.857-5.858 15.355 0 21.213 2.929 2.929 6.768 4.394 10.607 4.394s7.678-1.465 10.606-4.394l36.07-36.07c9.759 6.976 20.944 13.062 33.239 18.092l-14.062 48.229c-2.319 7.953 2.249 16.279 10.202 18.599 1.402.409 2.816.604 4.206.604 6.497 0 12.483-4.254 14.394-10.806l13.811-47.367c13.711 3.398 28.29 5.628 43.42 6.528v49.679c0 8.284 6.716 15 15 15s15-6.716 15-15v-49.651c15.295-.882 30.03-3.124 43.88-6.556l13.811 47.367c1.91 6.552 7.897 10.806 14.394 10.806 1.39 0 2.804-.195 4.206-.604 7.953-2.319 12.52-10.646 10.202-18.599l-14.062-48.229c12.295-5.03 23.48-11.116 33.239-18.092l36.07 36.07c2.929 2.929 6.768 4.394 10.606 4.394 3.839 0 7.678-1.465 10.607-4.394 5.858-5.857 5.858-15.355 0-21.213z"/></g></svg>