<svg height="448pt" viewBox="0 -104 448 448" width="448pt" xmlns="http://www.w3.org/2000/svg"><path d="m448 8c0-4.417969-3.582031-8-8-8h-432c-4.417969 0-8 3.582031-8 8v8h448zm0 0"/><path d="m8 240h432c4.417969 0 8-3.582031 8-8v-200h-448v200c0 4.417969 3.582031 8 8 8zm234.34375-125.65625 15.640625-15.640625c-1.292969-3.421875-1.964844-7.046875-1.984375-10.703125 0-4.417969 3.582031-8 8-8s8 3.582031 8 8c0 15.136719 26.289062 32 64 32s64-16.863281 64-32c0-4.417969 3.582031-8 8-8s8 3.582031 8 8c-.019531 3.65625-.691406 7.28125-1.984375 10.703125l15.640625 15.640625c2.078125 2.007812 2.914062 4.984375 2.179688 7.78125-.730469 2.796875-2.914063 4.980469-5.710938 5.710938-2.796875.734374-5.773438-.101563-7.78125-2.179688l-13.230469-13.230469c-2.890625 2.945313-6.082031 5.574219-9.527343 7.847657l26.070312 26.070312c2.078125 2.007812 2.914062 4.984375 2.179688 7.78125-.730469 2.796875-2.914063 4.980469-5.710938 5.710938-2.796875.734374-5.773438-.101563-7.78125-2.179688l-29.601562-29.601562c-3.300782 1.285156-6.664063 2.402343-10.078126 3.34375l12.535157 25.027343c1.976562 3.953125.371093 8.757813-3.582031 10.734375-3.957032 1.976563-8.761719.371094-10.738282-3.585937l-14.398437-28.847657c-3.402344.464844-6.855469.800782-10.402344 1.042969v32.230469c0 4.417969-3.578125 8-8 8-4.417969 0-8-3.582031-8-8v-32.230469c-3.558594-.210937-7.015625-.578125-10.398437-1.042969l-14.398438 28.847657c-1.976562 3.957031-6.78125 5.5625-10.738281 3.585937-3.953125-1.976562-5.558594-6.78125-3.582031-10.734375l12.527343-25.058593c-3.457031-.945313-6.859375-2.070313-10.199219-3.367188l-29.601562 29.601562c-3.136719 3.03125-8.128906 2.988282-11.214844-.097656-3.085937-3.085937-3.128906-8.078125-.097656-11.214844l26.074219-26.074218c-3.445313-2.269532-6.640625-4.898438-9.527344-7.847656l-13.234375 13.234374c-3.136719 3.03125-8.128906 2.988282-11.214844-.097656-3.085937-3.085937-3.128906-8.078125-.097656-11.214844zm-224 0 15.640625-15.640625c-1.292969-3.421875-1.964844-7.046875-1.984375-10.703125 0-4.417969 3.582031-8 8-8s8 3.582031 8 8c0 15.136719 26.289062 32 64 32s64-16.863281 64-32c0-4.417969 3.582031-8 8-8s8 3.582031 8 8c-.019531 3.65625-.691406 7.28125-1.984375 10.703125l15.640625 15.640625c2.078125 2.007812 2.914062 4.984375 2.179688 7.78125-.730469 2.796875-2.914063 4.980469-5.710938 5.710938-2.796875.734374-5.773438-.101563-7.78125-2.179688l-13.230469-13.230469c-2.890625 2.945313-6.082031 5.574219-9.527343 7.847657l26.070312 26.070312c2.078125 2.007812 2.914062 4.984375 2.179688 7.78125-.730469 2.796875-2.914063 4.980469-5.710938 5.710938-2.796875.734374-5.773438-.101563-7.78125-2.179688l-29.601562-29.601562c-3.300782 1.285156-6.664063 2.402343-10.078126 3.34375l12.535157 25.027343c1.976562 3.953125.371093 8.757813-3.582031 10.734375-3.957032 1.976563-8.761719.371094-10.738282-3.585937l-14.398437-28.847657c-3.402344.464844-6.855469.800782-10.402344 1.042969v32.230469c0 4.417969-3.578125 8-8 8-4.417969 0-8-3.582031-8-8v-32.230469c-3.558594-.210937-7.015625-.578125-10.398437-1.042969l-14.398438 28.847657c-1.976562 3.957031-6.78125 5.5625-10.738281 3.585937-3.953125-1.976562-5.558594-6.78125-3.582031-10.734375l12.527343-25.058593c-3.457031-.945313-6.859375-2.070313-10.199219-3.367188l-29.601562 29.601562c-2.007812 2.078126-4.984375 2.914063-7.78125 2.179688-2.796875-.730469-4.980469-2.917969-5.710938-5.714844-.734374-2.796875.101563-5.769531 2.179688-7.777344l26.074219-26.074218c-3.445313-2.269532-6.640625-4.898438-9.527344-7.847656l-13.265625 13.289062c-3.140625 3.03125-8.128906 2.988281-11.214844-.097656-3.085937-3.085938-3.128906-8.074219-.097656-11.214844zm0 0"/></svg>