<svg id="Capa_1" enable-background="new 0 0 512 512" height="512" viewBox="0 0 512 512" width="512" xmlns="http://www.w3.org/2000/svg"><g><path d="m405.535 108.417c-28.169-32.095-55.77-62.417-89.535-62.417-24.507 0-46.304 9.448-60 24.038-13.696-14.59-35.493-24.038-60-24.038-33.765 0-60.352 30.322-88.477 62.417-31.289 35.684-64.632 72.583-107.377 72.583v15l47.166 9h208.688 209.392l46.608-9v-15c-42.759 0-75.146-36.899-106.465-72.583z" fill="#f25588"/><path d="m512 196v-15c-42.759 0-75.146-36.899-106.465-72.583-28.169-32.095-55.77-62.417-89.535-62.417-24.507 0-46.304 9.448-60 24.038v134.962h209.392z" fill="#e63a57"/><path d="m256 196h-255.854v15h30.854c10.005 0 22.295 11.514 37.866 26.089 33.574 31.421 84.287 78.911 187.134 78.911s154.56-47.49 188.134-78.911c15.571-14.575 27.861-26.089 37.866-26.089h30v-15z" fill="#ff73b9"/><path d="m482 211h30v-15h-256v120c102.847 0 154.56-47.49 188.134-78.911 15.571-14.575 27.861-26.089 37.866-26.089z" fill="#f25588"/><path d="m106 391v15 15h150v-15-15z" fill="#4d4d80"/><path d="m106 406h150v15h-150z" fill="#2e2e4d"/><path d="m241 361v45 45h75v-45-45z" fill="#ffdf40"/><path d="m241 406h75v45h-75z" fill="#ff9f40"/><path d="m452 346h-151v60 60h151c33.091 0 60-26.909 60-60s-26.909-60-60-60z" fill="#4d4d80"/><path d="m452 466c33.091 0 60-26.909 60-60h-211v60z" fill="#2e2e4d"/><path d="m76 361c-17.461 0-76 14.033-76 45s58.539 45 76 45c24.814 0 45-20.186 45-45s-20.186-45-45-45z" fill="#f25588"/><path d="m76 451c24.814 0 45-20.186 45-45h-121c0 30.967 58.539 45 76 45z" fill="#e63a57"/><path d="m368.91 176.195c-41.091-11.678-48.618-18.181-63.384-20.376-7.403-1.23-14.908-.048-21.55 3.364-7.729 3.97-17.525 6.709-27.977 6.713-10.367.002-21.519-3.188-27.188-6.292-6.784-3.713-14.623-5.061-22.256-3.809-.018.004-.035.005-.053.009-14.392 2.181-27.636 10.598-68.276 21.665l-71.689 18.531 73.652 10.811c29.268 3.911 52.646 8.145 69.478 12.612 16.494 4.365 32.08 6.577 46.333 6.577 14.297 0 29.897-2.227 46.362-6.592 21.313-5.669 43.154-10.371 64.907-13.989l66.845-9.419z" fill="#3d3d66"/><path d="m367.27 205.419 66.844-9.419-65.204-19.805c-41.091-11.678-48.618-18.181-63.384-20.376-7.403-1.23-14.908-.047-21.55 3.365-7.728 3.97-17.525 6.709-27.976 6.712v60.104c14.297 0 29.897-2.227 46.362-6.592 21.314-5.669 43.155-10.371 64.908-13.989z" fill="#2e2e4d"/></g></svg>