<svg id="Capa_1" enable-background="new 0 0 512 512" height="512" viewBox="0 0 512 512" width="512" xmlns="http://www.w3.org/2000/svg"><g><g><path d="m69.469 217.842 97.026 42.695c5.995 2.638 10.489 7.828 12.242 14.138l27.375 98.507c10.321 37.138 30.817 62.766 48.935 62.766l7.766-29.409-39.341-141.565c-5.254-18.904 6.382-29.608 18.397-14.237l46.763 59.823 17.403 62.622c10.321 37.138 30.656 62.766 48.935 62.766l7.766-29.41-10.184-36.645s34.222 52.766 58.935 52.766l7.766-29.41-1.718-6.18s2.956-30.997 15.254-30.997l12.508-25.418v-107.581c0-11.501-6.796-21.917-17.323-26.549l-339.365-149.334c-15.232-6.703-31.691-10.164-48.332-10.164h-12.777l-10 101.169c0 34.505 20.387 65.75 51.969 79.647z" fill="#ffcdbe"/><path d="m354.971 435.948-6.902 26.137c-18.724-3.321-38.602-30.575-52.033-78.904l-17.403-62.622-46.763-59.823c-3.232-4.134-9.802-.819-8.397 4.237l-2.331-8.386c-5.254-18.904 18.712-31.221 30.728-15.85l46.763 59.823 17.403 62.622c10.32 37.138 24.449 61.815 38.935 72.766zm17.582-86.054-21.094-75.902-55.899-71.588c-7.583-9.711-23.132-5.235-24.392 7.021l-.668 6.499 60.96 78.068 21.094 75.902c13.431 48.329 33.308 75.583 52.033 78.904l6.902-26.137c-14.487-10.952-28.615-35.629-38.936-72.767zm40.745-110.534c0-7.422-4.386-14.143-11.179-17.133 0 0-17.145-7.544-26.672-11.737-30.27-13.32-54.024-38.865-61.563-64.171 0 20.052 6.703 39.528 19.044 55.333l51.334 65.741 33.274 119.678 15.254-30.997c-6.436-9.079-19.492-34.691-19.492-93.08 0-7.883 0-23.634 0-23.634zm-405.798-91.165c0 34.505 20.387 65.75 51.969 79.647l106.497 46.863 30.146 108.477c13.431 48.329 33.308 75.583 52.033 78.904l6.902-26.137c-14.486-10.951-28.614-35.628-38.935-72.766l-27.375-98.507c-1.754-6.31-6.247-11.5-12.242-14.138l-97.026-42.695c-31.582-13.898-51.969-45.143-51.969-79.648v-91.169h-20z" fill="#ebae9d"/><path d="m262.233 406.703c-4.862 1.399-9.06 3.984-12.385 7.345l7.18 48.828c1.668 6.003 13.333 3.909 21.868 1.534l-16.082-57.871c-.195.054-.389.108-.581.164z" fill="#e2a5cf"/><path d="m262.028 457.875-12.18-43.828c-7.025 7.101-10.138 17.683-7.276 27.982l5.573 20.056c3.636 13.085 17.392 15.24 28.477 12.156 2.568-.715 4.067-3.382 3.353-5.949l-1.079-3.883c-8.536 2.375-15.2-.531-16.868-6.534z" fill="#d273b3"/><path d="m362.156 406.703c-4.862 1.399-9.06 3.984-12.385 7.345l7.18 48.828c1.668 6.003 13.333 3.909 21.868 1.534l-16.082-57.871c-.195.054-.389.108-.581.164z" fill="#e2a5cf"/><path d="m361.951 457.875-12.18-43.828c-7.025 7.101-10.138 17.683-7.276 27.982l5.573 20.056c3.636 13.085 17.392 15.24 28.477 12.156 2.568-.715 4.067-3.382 3.353-5.949l-1.079-3.883c-8.535 2.375-15.2-.531-16.868-6.534z" fill="#d273b3"/><path d="m418.673 393.415c-4.862 1.399-9.06 3.984-12.385 7.345l7.18 48.828c1.668 6.003 13.333 3.909 21.868 1.534l-16.082-57.871c-.195.054-.388.109-.581.164z" fill="#e2a5cf"/><path d="m418.468 444.588-12.18-43.828c-7.025 7.101-10.138 17.683-7.276 27.982l5.573 20.056c3.636 13.085 17.392 15.24 28.477 12.156 2.568-.715 4.067-3.382 3.353-5.949l-1.079-3.883c-8.535 2.374-15.2-.532-16.868-6.534z" fill="#d273b3"/><path d="m444.694 330.659c-5.059.046-9.796 1.412-13.899 3.761l-6.156 48.967c0 6.23 11.799 7.336 20.659 7.333v-60.064c-.202 0-.404.001-.604.003z" fill="#e2a5cf"/><path d="m430.795 379.908v-45.488c-8.67 4.961-14.503 14.323-14.503 25.012v20.816c0 13.581 12.676 19.341 24.182 19.337 2.665-.001 4.824-2.169 4.824-4.834v-4.03c-8.86.002-14.503-4.583-14.503-10.813z" fill="#d273b3"/><g fill="#d3effd"><circle cx="371.775" cy="86.792" r="15"/><circle cx="107.405" cy="360.768" r="15"/></g></g><g><path d="m367.668 482.988c-3.72 0-7.302-.553-10.562-1.657-6.696-2.27-11.785-6.793-14.68-12.948-21.375-6.95-40.744-36.867-53.617-83.192l-17.004-61.186-37.463-47.927 35.681 128.395c.006.02.011.039.017.059.005.019.01.038.016.057l17.146 61.697c1.82 6.549-2.022 13.359-8.567 15.183-7.454 2.072-15.07 2.025-21.45-.137-6.697-2.27-11.786-6.793-14.68-12.948-21.373-6.952-40.746-36.876-53.618-83.192l-5.341-19.219c-1.108-3.99 1.228-8.125 5.219-9.234 3.99-1.109 8.125 1.229 9.234 5.219l5.341 19.219c9.799 35.261 21.99 55.938 32.887 66.03l-.881-3.166c-2.59-9.321-1.42-19.076 3.294-27.469 3.534-6.29 8.778-11.287 15.141-14.529l-37.533-135.059c-1.591-5.724 1.003-11.591 6.307-14.268 5.306-2.678 11.565-1.277 15.226 3.402l46.764 59.824c.605.775 1.054 1.663 1.317 2.611l17.403 62.622c6.189 22.274 14.114 40.942 22.916 53.988 3.241 4.803 6.596 8.819 9.944 11.95l-.854-3.075c-4.68-16.841 3.424-34.369 18.427-42.023l-8.322-29.945c-.016-.057-.03-.109-.047-.167-.002-.008-.004-.017-.007-.024l-20.688-74.443-60.044-76.895c-2.55-3.265-1.97-7.979 1.295-10.527 3.267-2.549 7.979-1.969 10.527 1.295l60.96 78.068c.605.775 1.052 1.661 1.315 2.608l21.138 76.062c6.178 22.184 14.078 40.782 22.85 53.794 3.248 4.818 6.61 8.847 9.967 11.984l-.854-3.073c-4.676-16.827 3.41-34.34 18.387-42.003-.377-1.097-.678-2.227-.902-3.389l-31.836-114.523-50.417-64.567c-12.27-15.711-19.48-35.112-20.506-54.999l-14.067-6.19c-3.792-1.668-5.513-6.094-3.845-9.885 1.669-3.791 6.094-5.51 9.886-3.845l132.51 58.311c13.245 5.827 21.803 18.942 21.803 33.413v171.675c0 6.799-5.527 12.331-12.321 12.334-.005 0-.01 0-.015 0-3.425 0-6.769-.409-9.915-1.194l13.095 47.105c1.819 6.554-2.025 13.364-8.57 15.184-7.45 2.073-15.067 2.025-21.447-.137-6.696-2.27-11.785-6.792-14.68-12.947-6.296-2.048-12.418-6.089-18.252-11.954l6.433 23.144c1.82 6.549-2.023 13.36-8.569 15.183-3.649 1.013-7.333 1.52-10.892 1.52zm-109.728-65.975c-2.55 1.804-4.673 4.143-6.224 6.903-2.759 4.911-3.44 10.631-1.919 16.105l5.574 20.055c1.004 3.616 3.109 5.855 6.625 7.047 2.829.959 6.369 1.117 10.003.483zm99.916-.025c-7.058 5.041-10.591 14.197-8.135 23.034l5.573 20.056c1.005 3.615 3.11 5.854 6.626 7.046 2.827.959 6.368 1.117 10.003.483zm56.514-13.285c-7.056 5.041-10.587 14.195-8.132 23.031l5.573 20.055c1.006 3.617 3.11 5.856 6.626 7.047 2.829.96 6.369 1.117 10.004.483zm23.428-64.284c-8.148 2.967-14.002 10.841-14.003 20.012l-.002 20.815c0 3.754 1.428 6.476 4.496 8.564 2.469 1.683 5.837 2.782 9.509 3.145zm-115.543-181.222c2.073 14.088 7.795 27.583 16.585 38.839l51.333 65.741c.605.775 1.052 1.661 1.314 2.607l21.464 77.21c4.997-9.487 14.069-16.525 24.847-18.719v-100.802c0-8.524-5.041-16.251-12.844-19.684zm-214.851 225.071c-12.406 0-22.5-10.094-22.5-22.5s10.094-22.5 22.5-22.5 22.5 10.094 22.5 22.5-10.093 22.5-22.5 22.5zm0-30c-4.136 0-7.5 3.364-7.5 7.5s3.364 7.5 7.5 7.5 7.5-3.364 7.5-7.5-3.364-7.5-7.5-7.5zm-79.904 14.888c-4.143 0-7.5-3.357-7.5-7.5v-22.5h-12.5c-4.143 0-7.5-3.357-7.5-7.5s3.357-7.5 7.5-7.5h12.5v-22.5c0-4.143 3.357-7.5 7.5-7.5s7.5 3.357 7.5 7.5v22.5h12.5c4.143 0 7.5 3.357 7.5 7.5s-3.357 7.5-7.5 7.5h-12.5v22.5c0 4.142-3.357 7.5-7.5 7.5zm155.101-26.078c-3.285 0-6.3-2.175-7.223-5.494l-15.686-56.446-103.243-45.43c-34.292-15.09-56.449-49.048-56.449-86.513 0-4.143 3.357-7.5 7.5-7.5s7.5 3.357 7.5 7.5c0 31.519 18.642 60.088 47.49 72.782l106.497 46.863c2.06.905 3.604 2.688 4.206 4.856l16.638 59.871c1.108 3.99-1.228 8.125-5.219 9.234-.671.188-1.347.277-2.011.277zm-60.197-109.234c-4.143 0-7.5-3.357-7.5-7.5v-22.5h-12.5c-4.143 0-7.5-3.357-7.5-7.5s3.357-7.5 7.5-7.5h12.5v-22.5c0-4.143 3.357-7.5 7.5-7.5s7.5 3.357 7.5 7.5v22.5h12.5c4.143 0 7.5 3.357 7.5 7.5s-3.357 7.5-7.5 7.5h-12.5v22.5c0 4.143-3.357 7.5-7.5 7.5zm143.162-100.282c-1.009 0-2.034-.205-3.017-.637l-176.96-77.871c-14.37-6.322-29.616-9.528-45.313-9.528h-32.776c-4.143 0-7.5-3.357-7.5-7.5s3.357-7.5 7.5-7.5h32.776c17.789 0 35.067 3.634 51.354 10.799l176.961 77.87c3.792 1.669 5.513 6.095 3.845 9.886-1.237 2.808-3.987 4.481-6.87 4.481zm106.208-23.27c-12.406 0-22.5-10.094-22.5-22.5s10.094-22.5 22.5-22.5 22.5 10.094 22.5 22.5-10.093 22.5-22.5 22.5zm0-30c-4.136 0-7.5 3.364-7.5 7.5s3.364 7.5 7.5 7.5 7.5-3.364 7.5-7.5-3.364-7.5-7.5-7.5zm112.726 24.72c-4.143 0-7.5-3.357-7.5-7.5v-22.5h-12.5c-4.143 0-7.5-3.357-7.5-7.5s3.357-7.5 7.5-7.5h12.5v-22.5c0-4.143 3.357-7.5 7.5-7.5s7.5 3.357 7.5 7.5v22.5h12.5c4.143 0 7.5 3.357 7.5 7.5s-3.357 7.5-7.5 7.5h-12.5v22.5c0 4.143-3.357 7.5-7.5 7.5z"/></g></g></svg>